<mxfile host="65bd71144e">
    <diagram id="TJ5Nvxhqn_RM2mRXQW2T" name="Page-1">
        <mxGraphModel dx="1702" dy="586" grid="1" gridSize="10" guides="1" tooltips="1" connect="1" arrows="1" fold="1" page="1" pageScale="1" pageWidth="850" pageHeight="1100" math="0" shadow="0">
            <root>
                <mxCell id="0"/>
                <mxCell id="1" parent="0"/>
                <mxCell id="9" style="edgeStyle=none;html=1;entryX=0;entryY=0.5;entryDx=0;entryDy=0;" parent="1" source="2" target="8" edge="1">
                    <mxGeometry relative="1" as="geometry">
                        <mxPoint x="50" y="425.0000000000001" as="targetPoint"/>
                    </mxGeometry>
                </mxCell>
                <mxCell id="2" value="&amp;lt;App&amp;gt;" style="whiteSpace=wrap;html=1;" parent="1" vertex="1">
                    <mxGeometry x="-60" y="400" width="70" height="50" as="geometry"/>
                </mxCell>
                <mxCell id="5" style="edgeStyle=none;html=1;" parent="1" source="4" edge="1">
                    <mxGeometry relative="1" as="geometry">
                        <mxPoint x="-70" y="425" as="targetPoint"/>
                    </mxGeometry>
                </mxCell>
                <mxCell id="4" value="main.jsx" style="whiteSpace=wrap;html=1;" parent="1" vertex="1">
                    <mxGeometry x="-232" y="400" width="70" height="50" as="geometry"/>
                </mxCell>
                <mxCell id="6" value="&amp;lt;GameProvider&amp;gt;" style="whiteSpace=wrap;html=1;" parent="1" vertex="1">
                    <mxGeometry x="-135" y="160" width="220" height="87" as="geometry"/>
                </mxCell>
                <mxCell id="14" style="edgeStyle=none;html=1;entryX=0;entryY=0.5;entryDx=0;entryDy=0;" parent="1" source="8" target="10" edge="1">
                    <mxGeometry relative="1" as="geometry"/>
                </mxCell>
                <mxCell id="16" style="edgeStyle=none;html=1;" parent="1" source="8" edge="1">
                    <mxGeometry relative="1" as="geometry">
                        <mxPoint x="330" y="425" as="targetPoint"/>
                    </mxGeometry>
                </mxCell>
                <mxCell id="17" style="edgeStyle=none;html=1;entryX=0;entryY=0.5;entryDx=0;entryDy=0;" parent="1" source="8" target="12" edge="1">
                    <mxGeometry relative="1" as="geometry"/>
                </mxCell>
                <mxCell id="8" value="&amp;lt;UI&amp;gt;" style="whiteSpace=wrap;html=1;" parent="1" vertex="1">
                    <mxGeometry x="160" y="400" width="70" height="50" as="geometry"/>
                </mxCell>
                <mxCell id="10" value="&amp;lt;MainWindow&amp;gt;" style="whiteSpace=wrap;html=1;" parent="1" vertex="1">
                    <mxGeometry x="317" y="220" width="140" height="160" as="geometry"/>
                </mxCell>
                <mxCell id="28" style="edgeStyle=none;html=1;" edge="1" parent="1" source="29" target="27">
                    <mxGeometry relative="1" as="geometry"/>
                </mxCell>
                <mxCell id="11" value="&amp;lt;CommandLine&amp;gt;" style="whiteSpace=wrap;html=1;" parent="1" vertex="1">
                    <mxGeometry x="332" y="400" width="110" height="50" as="geometry"/>
                </mxCell>
                <mxCell id="12" value="&amp;lt;PlayerBar&amp;gt;" style="whiteSpace=wrap;html=1;" parent="1" vertex="1">
                    <mxGeometry x="327" y="470" width="120" height="88" as="geometry"/>
                </mxCell>
                <mxCell id="23" style="edgeStyle=none;html=1;entryX=0;entryY=0.5;entryDx=0;entryDy=0;" parent="1" source="18" target="12" edge="1">
                    <mxGeometry relative="1" as="geometry"/>
                </mxCell>
                <mxCell id="18" value="Player" style="whiteSpace=wrap;html=1;" parent="1" vertex="1">
                    <mxGeometry x="-90" y="460" width="130" height="20" as="geometry"/>
                </mxCell>
                <mxCell id="26" style="edgeStyle=none;html=1;entryX=0;entryY=0.5;entryDx=0;entryDy=0;" parent="1" source="19" target="10" edge="1">
                    <mxGeometry relative="1" as="geometry"/>
                </mxCell>
                <mxCell id="19" value="Current Area" style="whiteSpace=wrap;html=1;" parent="1" vertex="1">
                    <mxGeometry x="-90" y="290" width="130" height="20" as="geometry"/>
                </mxCell>
                <mxCell id="25" style="edgeStyle=none;html=1;entryX=0;entryY=0.5;entryDx=0;entryDy=0;" parent="1" source="20" target="10" edge="1">
                    <mxGeometry relative="1" as="geometry"/>
                </mxCell>
                <mxCell id="20" value="NPCs" style="whiteSpace=wrap;html=1;" parent="1" vertex="1">
                    <mxGeometry x="-90" y="320" width="130" height="20" as="geometry"/>
                </mxCell>
                <mxCell id="24" style="edgeStyle=none;html=1;entryX=0;entryY=0.5;entryDx=0;entryDy=0;" parent="1" source="21" target="10" edge="1">
                    <mxGeometry relative="1" as="geometry"/>
                </mxCell>
                <mxCell id="21" value="Enemies" style="whiteSpace=wrap;html=1;" parent="1" vertex="1">
                    <mxGeometry x="-90" y="350" width="130" height="20" as="geometry"/>
                </mxCell>
                <mxCell id="27" value="Functions list" style="whiteSpace=wrap;html=1;" parent="1" vertex="1">
                    <mxGeometry x="852" y="345.5" width="220" height="159" as="geometry"/>
                </mxCell>
                <mxCell id="30" value="" style="edgeStyle=none;html=1;" edge="1" parent="1" source="11" target="29">
                    <mxGeometry relative="1" as="geometry">
                        <mxPoint x="442" y="425" as="sourcePoint"/>
                        <mxPoint x="852" y="425" as="targetPoint"/>
                    </mxGeometry>
                </mxCell>
                <mxCell id="29" value="Normalize Input" style="whiteSpace=wrap;html=1;" vertex="1" parent="1">
                    <mxGeometry x="580" y="400" width="110" height="50" as="geometry"/>
                </mxCell>
            </root>
        </mxGraphModel>
    </diagram>
</mxfile>